<svg width="40" height="40" viewBox="0 0 40 40" fill="none" xmlns="http://www.w3.org/2000/svg">
<path d="M35 30.8333C35 33.135 33.135 35 30.8333 35H9.16667C6.86583 35 5 33.135 5 30.8333V9.16667C5 6.865 6.86583 5 9.16667 5H30.8333C33.135 5 35 6.865 35 9.16667V30.8333Z" fill="#3B57D0"/>
<path d="M29.9475 15.034C29.9858 14.9082 30.0042 14.7915 29.9992 14.6873C29.9867 14.3857 29.7792 14.1665 29.2908 14.1665H27.1092C26.5583 14.1665 26.3042 14.4998 26.1558 14.834C26.1558 14.834 24.7958 17.6332 23.2283 19.479C22.72 20.0132 22.4617 19.9998 22.1867 19.9998C22.0392 19.9998 21.6667 19.8215 21.6667 19.3323V15.0115C21.6667 14.4332 21.5225 14.1665 21.0567 14.1665H17.1825C16.8433 14.1665 16.6667 14.4332 16.6667 14.7007C16.6667 15.2565 17.415 15.3898 17.5 16.9473V19.9665C17.5 20.6998 17.3725 20.8332 17.0975 20.8332C16.3558 20.8332 14.8958 18.3332 13.9183 15.0565C13.7067 14.4115 13.495 14.1665 12.9442 14.1665H10.7417C10.1058 14.1665 10 14.4782 10 14.8115C10 15.4123 10.5 18.6607 13.2292 22.3957C15.2083 25.104 17.8158 26.6665 20.1242 26.6665C21.5225 26.6665 21.6658 26.3107 21.6658 25.7548V23.2782C21.6667 22.6107 21.8192 22.4998 22.2642 22.4998C22.5817 22.4998 23.2292 22.7082 24.4792 24.1665C25.9208 25.8482 26.1825 26.6665 27.0092 26.6665H29.1908C29.6975 26.6665 29.9883 26.454 30 26.0415C30.0025 25.9365 29.9875 25.819 29.9533 25.6882C29.7917 25.2082 29.05 24.0348 28.125 22.9165C27.6125 22.2973 27.1067 21.684 26.8742 21.3507C26.7183 21.1332 26.6592 20.9798 26.6667 20.8332C26.6742 20.679 26.7542 20.5323 26.8742 20.3273C26.8525 20.3273 29.6725 16.3682 29.9475 15.034V15.034Z" fill="white"/>
</svg>
