<svg width="652" height="1287" viewBox="0 0 652 1287" fill="none" xmlns="http://www.w3.org/2000/svg">
<path opacity="0.05" d="M643.5 1287C558.958 1287.24 475.213 1270.73 397.104 1238.38C318.995 1206.03 248.084 1158.48 188.47 1098.53C128.523 1038.92 80.9683 968.005 48.6192 889.896C16.27 811.787 -0.241274 728.042 0.00266395 643.5C-0.229964 558.959 16.3278 475.211 48.6763 397.104C81.0248 318.997 128.532 248.091 188.47 188.47C248.084 128.523 318.995 80.9683 397.104 48.6192C475.213 16.27 558.958 -0.241274 643.5 0.00266395C728.041 -0.229964 811.789 16.3278 889.896 48.6763C968.003 81.0248 1038.91 128.532 1098.53 188.47C1158.47 248.091 1205.98 318.997 1238.32 397.104C1270.67 475.211 1287.23 558.959 1287 643.5C1287.24 728.042 1270.73 811.787 1238.38 889.896C1206.03 968.005 1158.48 1038.92 1098.53 1098.53C1038.91 1158.47 968.003 1205.98 889.896 1238.32C811.789 1270.67 728.041 1287.23 643.5 1287ZM643.5 146.252C511.662 146.384 385.268 198.821 292.044 292.044C198.821 385.268 146.384 511.662 146.252 643.5C146.407 775.331 198.826 901.737 292.044 994.956C385.263 1088.17 511.669 1140.59 643.5 1140.75C775.333 1140.6 901.735 1088.18 994.956 994.956C1088.18 901.735 1140.6 775.333 1140.75 643.5C1140.62 511.662 1088.18 385.268 994.956 292.044C901.732 198.821 775.338 146.384 643.5 146.252Z" fill="url(#paint0_linear_0_110)"/>
<defs>
<linearGradient id="paint0_linear_0_110" x1="356.499" y1="100.386" x2="1030.89" y2="1115.83" gradientUnits="userSpaceOnUse">
<stop stop-color="#505050"/>
<stop offset="1" stop-color="white" stop-opacity="0"/>
</linearGradient>
</defs>
</svg>
