<svg width="42" height="42" viewBox="0 0 42 42" fill="none" xmlns="http://www.w3.org/2000/svg">
<g id="icons" clip-path="url(#clip0_149_524)">
<path id="Vector" d="M27 30V26.8889C27 24.3222 23.085 23 21 23C18.915 23 15 24.3222 15 26.8889V30" stroke="#E2C445" stroke-width="2" stroke-linejoin="round"/>
<path id="Vector_2" d="M21 20.9972C21.3984 21.0141 21.7962 20.9533 22.168 20.8187C22.5398 20.684 22.8775 20.4784 23.1595 20.2151C23.4415 19.9517 23.6616 19.6364 23.8058 19.2891C23.95 18.9419 24.0152 18.5704 23.997 18.1983V16.7989C23.997 16.0566 23.6813 15.3447 23.1192 14.8198C22.5572 14.2949 21.7949 14 21 14C20.2051 14 19.4428 14.2949 18.8808 14.8198C18.3187 15.3447 18.003 16.0566 18.003 16.7989V18.1983C17.9848 18.5704 18.05 18.9419 18.1942 19.2891C18.3384 19.6364 18.5585 19.9517 18.8405 20.2151C19.1225 20.4784 19.4602 20.684 19.832 20.8187C20.2038 20.9533 20.6016 21.0141 21 20.9972Z" stroke="#E2C445" stroke-width="2" stroke-linejoin="round"/>
<path id="Vector_3" d="M21 36.75C29.6985 36.75 36.75 29.6985 36.75 21C36.75 12.3015 29.6985 5.25 21 5.25C12.3015 5.25 5.25 12.3015 5.25 21C5.25 29.6985 12.3015 36.75 21 36.75Z" stroke="white" stroke-width="2" stroke-linejoin="round"/>
<path id="Vector_4" d="M0 21H8.75" stroke="white" stroke-width="2" stroke-linejoin="round"/>
<path id="Vector_5" d="M33.25 21H42" stroke="white" stroke-width="2" stroke-linejoin="round"/>
<path id="Vector_6" d="M21 0V8.75" stroke="white" stroke-width="2" stroke-linejoin="round"/>
<path id="Vector_7" d="M21 33.25V42" stroke="white" stroke-width="2" stroke-linejoin="round"/>
</g>
<defs>
<clipPath id="clip0_149_524">
<rect width="42" height="42" fill="white"/>
</clipPath>
</defs>
</svg>
