<svg width="42" height="42" viewBox="0 0 42 42" fill="none" xmlns="http://www.w3.org/2000/svg">
<g clip-path="url(#clip0_149_569)">
<path d="M39.3085 5L29.8823 9.32035L33.4172 18.7466L42.0579 15.6045" stroke="#E2C445"/>
<path d="M36.9521 6.17822L40.487 15.9972" stroke="#E2C445"/>
<path d="M34.5955 7.35645L38.1303 16.7827" stroke="#E2C445"/>
<path d="M32.239 8.53467L35.7738 17.9609" stroke="#E2C445"/>
<path d="M30.2751 10.4985L21.2416 14.0334L14.9575 19.532C14.8265 19.6629 14.5647 20.0819 14.5647 20.7103C14.5647 21.3387 14.5647 25.1616 14.5647 26.9944C14.5647 27.3872 14.7218 28.0942 15.3502 27.7799C16.1357 27.3872 17.314 26.2089 17.314 25.0306C17.314 23.8524 16.5285 23.4596 17.314 21.8886C17.9424 20.6317 18.8851 19.0083 19.2778 18.3537" stroke="#E2C445"/>
<path d="M17.314 25.031L19.2778 29.7441C19.4087 30.0059 19.8276 30.2939 20.456 29.3513C21.2416 28.173 21.2416 27.7803 20.8488 26.602C20.456 25.4237 20.0633 23.8527 20.456 23.0672C20.7702 22.4388 21.8962 20.7106 22.4198 19.9251L25.9547 19.1396L26.3474 22.2817C24.9073 23.1981 22.1842 25.3452 22.8126 26.602C23.2054 27.7803 23.2054 27.7803 23.9909 27.3875C24.6193 27.0733 27.6566 25.1619 29.0967 24.2455C29.2277 24.1145 29.5681 23.6956 29.8823 23.0672C30.1965 22.4388 30.7987 19.1396 31.0605 17.5685L32.6316 17.1758" stroke="#E2C445"/>
<path d="M21.2417 14.0337L14.5649 17.5685C14.434 17.5685 14.0936 17.7256 13.7794 18.354C13.4652 18.9825 12.8629 23.0672 12.6011 25.031C12.4702 25.4237 12.444 26.1307 13.3866 25.8165C14.3292 25.5023 14.5649 25.1619 14.5649 25.031" stroke="#E2C445"/>
<path d="M19.6706 15.2119L11.4226 18.354C11.0298 18.7467 10.5585 19.6108 11.8153 19.925C13.0722 20.2392 13.3864 20.0559 13.3865 19.925" stroke="#E2C445"/>
<path d="M21 36.75C29.6985 36.75 36.75 29.6985 36.75 21C36.75 12.3015 29.6985 5.25 21 5.25C12.3015 5.25 5.25 12.3015 5.25 21C5.25 29.6985 12.3015 36.75 21 36.75Z" stroke="white" stroke-width="2" stroke-linejoin="round"/>
<path d="M0 21H8.75" stroke="white" stroke-width="2" stroke-linejoin="round"/>
<path d="M33.25 21H42" stroke="white" stroke-width="2" stroke-linejoin="round"/>
<path d="M21 0V8.75" stroke="white" stroke-width="2" stroke-linejoin="round"/>
<path d="M21 33.25V42" stroke="white" stroke-width="2" stroke-linejoin="round"/>
</g>
<defs>
<clipPath id="clip0_149_569">
<rect width="42" height="42" fill="white"/>
</clipPath>
</defs>
</svg>
