<svg width="42" height="42" viewBox="0 0 42 42" fill="none" xmlns="http://www.w3.org/2000/svg">
<g clip-path="url(#clip0_149_537)">
<path d="M21 36.75C29.6985 36.75 36.75 29.6985 36.75 21C36.75 12.3015 29.6985 5.25 21 5.25C12.3015 5.25 5.25 12.3015 5.25 21C5.25 29.6985 12.3015 36.75 21 36.75Z" stroke="white" stroke-width="2" stroke-linejoin="round"/>
<g clip-path="url(#clip1_149_537)">
<path fill-rule="evenodd" clip-rule="evenodd" d="M13.6636 29.9999C13.2527 30.0179 12.85 29.8792 12.535 29.6112C12.22 29.3432 12.0156 28.9652 11.962 28.5519V27.5158H10.4762C10.4162 27.5159 10.3566 27.5041 10.3011 27.4809C10.2455 27.4577 10.195 27.4236 10.1524 27.3806C10.1093 27.3367 10.0752 27.2845 10.0523 27.227C10.0294 27.1695 10.0181 27.108 10.0191 27.046V22.3417C10.0199 21.8868 10.1449 21.441 10.3802 21.0537C10.6156 20.6664 10.9521 20.3526 11.3524 20.1472L11.6318 20.0056L10.7493 19.8254C10.66 19.8114 10.5776 19.7685 10.5143 19.7031L10.4762 19.6581C10.2513 19.3588 10.1489 18.983 10.1905 18.6091C10.2047 18.2632 10.3052 17.9267 10.4826 17.6309C10.5556 17.5277 10.6645 17.4564 10.7874 17.4314L12.8889 17.0839L13.4604 15.3978C14.7302 12.431 17.562 12.0449 20.527 12.0449C23.4921 12.0449 27.1493 12.3796 28.4191 15.3978L29.0096 17.1161L29.0858 17.0839C29.1465 17.0709 29.2092 17.0709 29.2699 17.0839L31.3715 17.4314C31.4943 17.4564 31.6032 17.5277 31.6762 17.6309C31.8582 17.925 31.9611 18.2622 31.9747 18.6091C32.0091 18.9784 31.9073 19.3475 31.6889 19.6452L31.6509 19.6903C31.5876 19.7556 31.5052 19.7985 31.4159 19.8125L30.3493 20.0313L30.5524 20.1343C30.9536 20.3395 31.2909 20.653 31.5273 21.0402C31.7637 21.4275 31.89 21.8734 31.8921 22.3288V27.0331C31.8921 27.1577 31.8433 27.2772 31.7564 27.3653C31.6694 27.4534 31.5516 27.5029 31.4286 27.5029H31.3207H29.9302V28.6549C29.9333 28.6913 29.9333 28.7279 29.9302 28.7643C29.8392 29.1389 29.6189 29.4682 29.3091 29.6925C28.9993 29.9168 28.6205 30.0213 28.2413 29.987C27.308 29.987 26.3683 29.691 26.2858 28.5262V27.5287H15.6255V28.4875C15.6286 28.5261 15.6286 28.5648 15.6255 28.6034C15.3715 29.6073 14.6731 29.987 13.6636 29.9999ZM13.6636 29.0667C14.1969 29.0667 14.4572 28.9509 14.6032 28.6935L14.6985 28.4232V27.5158H12.8889V28.5519C12.9443 28.712 13.0502 28.8493 13.1902 28.9423C13.3302 29.0354 13.4966 29.0791 13.6636 29.0667ZM28.2667 29.0667C28.6604 29.0667 28.9016 28.9445 28.9778 28.7643L29.0477 28.5905V27.5158H27.2318V28.4747L27.289 28.7321C27.3651 28.9509 27.6255 29.0539 28.2413 29.0667H28.2667ZM29.4032 26.5826H29.5112H31.0096V22.3417C31.0096 21.5244 30.4889 21.0546 29.4286 20.5977C29.3699 20.5715 29.3171 20.5335 29.2734 20.4859C29.2297 20.4383 29.1961 20.3822 29.1747 20.3209L27.6064 15.7324L27.3969 15.3141C26.2286 13.3127 23.4032 12.9523 20.5651 12.9523C17.727 12.9523 15.6318 13.3191 14.5524 15.3141L14.3493 15.7324L12.7556 20.2888C12.7352 20.3506 12.702 20.4073 12.6582 20.455C12.6144 20.5027 12.561 20.5404 12.5016 20.5655C11.4477 21.016 10.9207 21.4922 10.9207 22.3095V26.5505H12.4255H12.527L29.4032 26.5826ZM14.0572 25.5851C13.6805 25.5851 13.3122 25.4719 12.999 25.2598C12.6857 25.0476 12.4416 24.7461 12.2974 24.3933C12.1533 24.0405 12.1155 23.6524 12.189 23.2779C12.2625 22.9033 12.4439 22.5593 12.7103 22.2893C12.9767 22.0193 13.3161 21.8355 13.6856 21.761C14.0551 21.6865 14.4381 21.7247 14.7861 21.8708C15.1342 22.0169 15.4317 22.2644 15.641 22.5819C15.8503 22.8994 15.962 23.2727 15.962 23.6545C15.962 23.9102 15.9119 24.1634 15.8146 24.3993C15.7173 24.6352 15.5747 24.8492 15.3951 25.0289C15.2155 25.2085 15.0026 25.3501 14.7685 25.4456C14.5345 25.5411 14.2841 25.5885 14.0318 25.5851H14.0572ZM27.7461 25.5851C27.3694 25.5851 27.0011 25.4719 26.6879 25.2598C26.3746 25.0476 26.1305 24.7461 25.9863 24.3933C25.8421 24.0405 25.8044 23.6524 25.8779 23.2779C25.9514 22.9033 26.1328 22.5593 26.3992 22.2893C26.6656 22.0193 27.005 21.8355 27.3745 21.761C27.744 21.6865 28.127 21.7247 28.475 21.8708C28.8231 22.0169 29.1205 22.2644 29.3298 22.5819C29.5391 22.8994 29.6508 23.2727 29.6508 23.6545C29.6509 23.9102 29.6008 24.1634 29.5035 24.3993C29.4062 24.6352 29.2636 24.8492 29.084 25.0289C28.9044 25.2085 28.6915 25.3501 28.4574 25.4456C28.2234 25.5411 27.973 25.5885 27.7207 25.5851H27.7461ZM14.0572 24.6456C14.2506 24.6456 14.4396 24.5874 14.6004 24.4785C14.7612 24.3696 14.8865 24.2149 14.9605 24.0338C15.0346 23.8527 15.0539 23.6534 15.0162 23.4612C14.9785 23.2689 14.8853 23.0923 14.7486 22.9537C14.6118 22.8151 14.4376 22.7207 14.248 22.6825C14.0583 22.6442 13.8617 22.6639 13.683 22.7389C13.5044 22.8139 13.3516 22.9409 13.2442 23.1039C13.1368 23.2669 13.0794 23.4585 13.0794 23.6545C13.0793 23.9129 13.1789 24.1612 13.3568 24.3463C13.5347 24.5315 13.7769 24.6389 14.0318 24.6456H14.0572ZM27.7461 24.6456C27.9395 24.6456 28.1285 24.5874 28.2893 24.4785C28.4501 24.3696 28.5754 24.2149 28.6494 24.0338C28.7234 23.8527 28.7428 23.6534 28.7051 23.4612C28.6674 23.2689 28.5742 23.0923 28.4375 22.9537C28.3007 22.8151 28.1265 22.7207 27.9368 22.6825C27.7472 22.6442 27.5506 22.6639 27.3719 22.7389C27.1932 22.8139 27.0405 22.9409 26.9331 23.1039C26.8257 23.2669 26.7683 23.4585 26.7683 23.6545C26.7682 23.9129 26.8678 24.1612 27.0457 24.3463C27.2236 24.5315 27.4658 24.6389 27.7207 24.6456H27.7461ZM14.1207 20.6813C14.0413 20.6894 13.9611 20.6766 13.888 20.6441C13.8149 20.6116 13.7513 20.5605 13.7034 20.4958C13.6555 20.431 13.6249 20.3549 13.6146 20.2746C13.6043 20.1944 13.6146 20.1128 13.6445 20.0378L15.0096 16.1765C15.8286 14.0013 18.7429 13.3706 21.2699 13.4993C23.7969 13.628 26.527 14.5419 26.9524 16.1958L28.0572 20.0571C28.078 20.1301 28.081 20.2072 28.0659 20.2816C28.0509 20.3561 28.0182 20.4257 27.9708 20.4846C27.9233 20.5434 27.8625 20.5897 27.7935 20.6195C27.7245 20.6493 27.6494 20.6617 27.5747 20.6556C23.0881 20.2992 18.5805 20.3078 14.0953 20.6813H14.1207ZM26.9842 19.7031L26.0318 16.4275C25.7905 15.4879 23.7461 14.5548 21.1937 14.4196C18.6413 14.2845 16.4255 14.9666 15.854 16.4918L14.7302 19.6709L15.7207 19.6002C16.254 19.568 16.781 19.5422 17.3143 19.5229L18.5842 19.4779L16.7429 17.9527C16.6962 17.9138 16.6575 17.866 16.6291 17.812C16.6006 17.7579 16.5829 17.6987 16.577 17.6378C16.5711 17.5768 16.5772 17.5153 16.5947 17.4567C16.6123 17.3981 16.6411 17.3436 16.6794 17.2963C16.7178 17.2489 16.765 17.2097 16.8183 17.1809C16.8716 17.152 16.9299 17.1341 16.9901 17.1281C17.0502 17.1222 17.1109 17.1282 17.1687 17.1461C17.2266 17.1639 17.2804 17.193 17.327 17.2319L19.981 19.4328H20.4572C20.9905 19.4328 21.5239 19.4328 22.0509 19.4328H23.0413L21.2001 17.9076C21.1102 17.829 21.0535 17.7184 21.0417 17.5987C21.0299 17.479 21.0638 17.3592 21.1366 17.2641C21.2132 17.1716 21.3225 17.1131 21.4411 17.1011C21.5597 17.089 21.6783 17.1244 21.7715 17.1997L24.4318 19.4007L24.508 19.4972H24.5905L25.8604 19.5615L26.9842 19.7031ZM10.8508 19.3492L11.162 19.0274L10.8572 19.3041L10.8508 19.3492ZM31.3715 19.3492V19.3041L31.054 19.0017L31.3715 19.3492ZM29.7715 19.1947L31.0858 18.9309C31.0957 18.8346 31.0957 18.7375 31.0858 18.6413C31.0847 18.546 31.074 18.4512 31.054 18.3581V18.3195L29.3905 18.0363L29.7715 19.1947ZM12.2032 19.1432L12.5715 18.0685L11.181 18.3002V18.3388C11.1533 18.4375 11.1362 18.5389 11.1302 18.6413C11.1161 18.7308 11.1161 18.822 11.1302 18.9116L12.2032 19.1432Z" fill="white"/>
<rect x="17" y="22" width="8" height="4" rx="0.5" fill="#E2C445"/>
<path d="M18.105 23.8053L18 23.395C18.1138 23.3338 18.2276 23.2731 18.3414 23.2128C18.456 23.1516 18.5702 23.0904 18.684 23.0292L18.6661 23.5021C18.573 23.5522 18.4795 23.6027 18.3856 23.6537C18.2924 23.7038 18.1989 23.7543 18.105 23.8053ZM18.444 24.9597C18.444 24.8614 18.444 24.7663 18.444 24.6745C18.444 24.5828 18.444 24.4789 18.444 24.363V23.8234C18.444 23.7297 18.444 23.6365 18.444 23.5438C18.444 23.4502 18.444 23.3565 18.444 23.2629L18.684 23.0292L18.906 23.0431C18.906 23.1553 18.906 23.267 18.906 23.3783C18.906 23.4886 18.906 23.5999 18.906 23.7121V24.363C18.906 24.4789 18.906 24.5828 18.906 24.6745C18.906 24.7663 18.906 24.8614 18.906 24.9597H18.444Z" fill="black"/>
<path d="M19.4116 24.9597V24.6036C19.4522 24.5637 19.4928 24.5243 19.5334 24.4854C19.5739 24.4465 19.6145 24.4075 19.6551 24.3686C19.7498 24.2768 19.831 24.1919 19.8986 24.114C19.9671 24.0352 20.0196 23.9592 20.0562 23.886C20.0928 23.8127 20.1111 23.739 20.1111 23.6648C20.1111 23.5934 20.0932 23.5396 20.0574 23.5035C20.0224 23.4664 19.9694 23.4478 19.8986 23.4478C19.8612 23.4478 19.823 23.4534 19.784 23.4645C19.745 23.4757 19.706 23.4905 19.6671 23.509C19.6281 23.5276 19.5895 23.5494 19.5513 23.5744C19.5131 23.5985 19.4761 23.6249 19.4403 23.6537L19.4021 23.1474C19.4395 23.128 19.4808 23.1099 19.5262 23.0932C19.5716 23.0756 19.6197 23.0598 19.6706 23.0459C19.7216 23.032 19.7745 23.0213 19.8294 23.0139C19.8843 23.0056 19.94 23.0014 19.9965 23.0014C20.1238 23.0014 20.2313 23.025 20.3188 23.0723C20.4071 23.1187 20.4736 23.1864 20.5181 23.2754C20.5635 23.3635 20.5862 23.4692 20.5862 23.5925C20.5862 23.6871 20.5706 23.7812 20.5396 23.8748C20.5086 23.9675 20.46 24.0589 20.394 24.1488C20.3287 24.2388 20.2448 24.3278 20.1421 24.4159L19.9237 24.6064L19.87 24.5035H20.1469C20.2225 24.5035 20.2981 24.5035 20.3737 24.5035C20.4493 24.5035 20.5245 24.5035 20.5993 24.5035V24.9597H19.4116Z" fill="black"/>
<path d="M21.6047 25C21.5442 25 21.4853 24.9963 21.428 24.9889C21.3715 24.9815 21.3178 24.9713 21.2669 24.9583C21.216 24.9453 21.169 24.9305 21.1261 24.9138C21.0839 24.8971 21.0461 24.8795 21.0127 24.8609L21.0449 24.3783C21.0871 24.4033 21.13 24.4265 21.1738 24.4478C21.2176 24.4692 21.2609 24.4877 21.3039 24.5035C21.3477 24.5192 21.3902 24.5318 21.4316 24.541C21.4738 24.5494 21.5144 24.5535 21.5534 24.5535C21.6385 24.5535 21.6986 24.5369 21.7336 24.5035C21.7686 24.4692 21.7861 24.4247 21.7861 24.37C21.7861 24.3069 21.7651 24.2601 21.7229 24.2295C21.6807 24.198 21.6178 24.1822 21.5343 24.1822C21.4953 24.1822 21.4567 24.1822 21.4185 24.1822C21.3811 24.1822 21.3433 24.1822 21.3051 24.1822V23.8164C21.3385 23.8164 21.3715 23.8164 21.4042 23.8164C21.4376 23.8164 21.471 23.8164 21.5044 23.8164C21.5609 23.8164 21.6067 23.809 21.6417 23.7942C21.6775 23.7793 21.7038 23.7585 21.7205 23.7316C21.7372 23.7047 21.7456 23.6713 21.7456 23.6314C21.7456 23.5702 21.7265 23.5248 21.6883 23.4951C21.6509 23.4645 21.5991 23.4492 21.5331 23.4492C21.4965 23.4492 21.4587 23.4539 21.4197 23.4631C21.3807 23.4724 21.3417 23.4854 21.3027 23.5021C21.2637 23.5178 21.2251 23.5369 21.1869 23.5591C21.1487 23.5804 21.1117 23.6036 21.0759 23.6287L21.0377 23.1405C21.0743 23.1229 21.1145 23.1057 21.1583 23.089C21.202 23.0714 21.249 23.0561 21.2991 23.0431C21.3493 23.0301 21.401 23.0199 21.4543 23.0125C21.5076 23.0042 21.5617 23 21.6166 23C21.7472 23 21.8574 23.0213 21.9473 23.064C22.0372 23.1057 22.1052 23.1646 22.1514 23.2406C22.1976 23.3157 22.2206 23.4047 22.2206 23.5076C22.2206 23.5874 22.2075 23.6555 22.1812 23.7121C22.155 23.7687 22.1196 23.8141 22.075 23.8484C22.0304 23.8818 21.9803 23.905 21.9246 23.9179V23.9569C21.9676 23.9662 22.009 23.9824 22.0487 24.0056C22.0885 24.0278 22.1243 24.058 22.1562 24.096C22.188 24.1331 22.2131 24.179 22.2314 24.2337C22.2505 24.2884 22.26 24.3523 22.26 24.4256C22.26 24.5378 22.2365 24.637 22.1896 24.7232C22.1434 24.8095 22.0718 24.8771 21.9747 24.9263C21.8785 24.9754 21.7551 25 21.6047 25Z" fill="black"/>
<path d="M23.3423 24.9597C23.3423 24.8651 23.3423 24.7738 23.3423 24.6857C23.3423 24.5976 23.3423 24.497 23.3423 24.3839L23.3769 24.3143V23.8248C23.3769 23.732 23.3769 23.6393 23.3769 23.5466C23.3769 23.4529 23.3769 23.3593 23.3769 23.2656L23.6849 23.0904C23.6451 23.1562 23.6061 23.2211 23.5679 23.2851C23.5297 23.3482 23.4915 23.4112 23.4533 23.4743L23.2026 23.8901C23.1684 23.9458 23.1346 24.0014 23.1012 24.057C23.0686 24.1117 23.0355 24.1669 23.0021 24.2225L22.989 24.1599H23.4569L23.4975 24.1224C23.5468 24.1224 23.6017 24.1224 23.6622 24.1224C23.7235 24.1224 23.7836 24.1224 23.8424 24.1224C23.9021 24.1224 23.9546 24.1224 24 24.1224V24.5786C23.9546 24.5786 23.9021 24.5786 23.8424 24.5786C23.7836 24.5786 23.7235 24.5786 23.6622 24.5786C23.6017 24.5786 23.5468 24.5786 23.4975 24.5786H22.6297V24.2239C22.6599 24.1739 22.6937 24.1182 22.7311 24.057C22.7685 23.9949 22.8059 23.9328 22.8433 23.8707C22.8815 23.8085 22.9166 23.751 22.9484 23.6982L23.1394 23.3853C23.1744 23.3278 23.209 23.2707 23.2432 23.2142C23.2782 23.1567 23.3129 23.0997 23.3471 23.0431H23.8019C23.8019 23.1581 23.8019 23.2712 23.8019 23.3825C23.8019 23.4928 23.8019 23.6032 23.8019 23.7135V24.3839C23.8019 24.497 23.8019 24.5976 23.8019 24.6857C23.8019 24.7738 23.8019 24.8651 23.8019 24.9597H23.3423Z" fill="black"/>
</g>
<path d="M0 21H8.75" stroke="white" stroke-width="2" stroke-linejoin="round"/>
<path d="M33.25 21H42" stroke="white" stroke-width="2" stroke-linejoin="round"/>
<path d="M21 0V8.75" stroke="white" stroke-width="2" stroke-linejoin="round"/>
<path d="M21 33.25V42" stroke="white" stroke-width="2" stroke-linejoin="round"/>
</g>
<defs>
<clipPath id="clip0_149_537">
<rect width="42" height="42" fill="white"/>
</clipPath>
<clipPath id="clip1_149_537">
<rect width="22" height="18" fill="white" transform="translate(10 12)"/>
</clipPath>
</defs>
</svg>
