<svg width="40" height="40" viewBox="0 0 40 40" fill="none" xmlns="http://www.w3.org/2000/svg">
<rect x="5" y="5" width="30" height="30" rx="10" fill="url(#paint0_radial_0_145)"/>
<path fill-rule="evenodd" clip-rule="evenodd" d="M8.33325 15.0002C8.33325 11.2899 11.2897 8.3335 14.9999 8.3335H24.9999C28.7102 8.3335 31.6666 11.2899 31.6666 15.0002V25.0002C31.6666 28.7104 28.7102 31.6668 24.9999 31.6668H14.9999C11.2897 31.6668 8.33325 28.7104 8.33325 25.0002V15.0002ZM24.9999 10.0002H14.9999C12.2102 10.0002 9.99992 12.2104 9.99992 15.0002V25.0002C9.99992 27.7899 12.2102 30.0002 14.9999 30.0002H24.9999C27.7897 30.0002 29.9999 27.7899 29.9999 25.0002V15.0002C29.9999 12.2104 27.7897 10.0002 24.9999 10.0002Z" fill="white"/>
<path d="M25.8333 14.1667C26.2936 14.1667 26.6667 13.7936 26.6667 13.3333C26.6667 12.8731 26.2936 12.5 25.8333 12.5C25.3731 12.5 25 12.8731 25 13.3333C25 13.7936 25.3731 14.1667 25.8333 14.1667Z" fill="white"/>
<path fill-rule="evenodd" clip-rule="evenodd" d="M20.0001 15.8332C17.6989 15.8332 15.8334 17.6986 15.8334 19.9998C15.8334 22.301 17.6989 24.1665 20.0001 24.1665C22.3013 24.1665 24.1667 22.301 24.1667 19.9998C24.1667 17.6986 22.3013 15.8332 20.0001 15.8332ZM14.1667 19.9998C14.1667 16.7782 16.7784 14.1665 20.0001 14.1665C23.2217 14.1665 25.8334 16.7782 25.8334 19.9998C25.8334 23.2215 23.2217 25.8332 20.0001 25.8332C16.7784 25.8332 14.1667 23.2215 14.1667 19.9998Z" fill="white"/>
<defs>
<radialGradient id="paint0_radial_0_145" cx="0" cy="0" r="1" gradientUnits="userSpaceOnUse" gradientTransform="translate(15.8333 35) rotate(-78.2317) scale(30.6441)">
<stop stop-color="#FFECB3"/>
<stop offset="0.214827" stop-color="#FFC107"/>
<stop offset="0.404141" stop-color="#FF6F00"/>
<stop offset="0.603254" stop-color="#F50057"/>
<stop offset="0.77029" stop-color="#8E24AA"/>
<stop offset="0.903679" stop-color="#6200EA"/>
<stop offset="1" stop-color="#304FFE"/>
</radialGradient>
</defs>
</svg>
