<svg width="64" height="64" viewBox="0 0 64 64" fill="none" xmlns="http://www.w3.org/2000/svg">
<g filter="url(#filter0_dii_0_157)">
<circle cx="32" cy="32" r="12" fill="#E2C445"/>
</g>
<path d="M43.5762 26.4802C43.8414 26.1619 43.7984 25.689 43.4802 25.4239C43.1619 25.1587 42.689 25.2017 42.4239 25.5199L37.0332 31.9887C35.9503 33.2881 35.1886 34.1994 34.5279 34.796C33.8826 35.3787 33.4373 35.5639 33 35.5639C32.5628 35.5639 32.1174 35.3787 31.4721 34.796C30.8114 34.1994 30.0497 33.2881 28.9669 31.9887L27.5762 30.3199C27.311 30.0017 26.8381 29.9587 26.5199 30.2239C26.2017 30.489 26.1587 30.9619 26.4239 31.2802L27.8531 32.9953C28.8884 34.2376 29.7175 35.2326 30.4668 35.9092C31.2409 36.6082 32.0322 37.0639 33 37.0639C33.9679 37.0639 34.7591 36.6082 35.5332 35.9092C36.2826 35.2326 37.1116 34.2377 38.1469 32.9953L43.5762 26.4802Z" fill="white"/>
<defs>
<filter id="filter0_dii_0_157" x="0" y="0" width="64" height="64" filterUnits="userSpaceOnUse" color-interpolation-filters="sRGB">
<feFlood flood-opacity="0" result="BackgroundImageFix"/>
<feColorMatrix in="SourceAlpha" type="matrix" values="0 0 0 0 0 0 0 0 0 0 0 0 0 0 0 0 0 0 127 0" result="hardAlpha"/>
<feOffset/>
<feGaussianBlur stdDeviation="10"/>
<feComposite in2="hardAlpha" operator="out"/>
<feColorMatrix type="matrix" values="0 0 0 0 0.720833 0 0 0 0 0.604329 0 0 0 0 0.111128 0 0 0 1 0"/>
<feBlend mode="normal" in2="BackgroundImageFix" result="effect1_dropShadow_0_157"/>
<feBlend mode="normal" in="SourceGraphic" in2="effect1_dropShadow_0_157" result="shape"/>
<feColorMatrix in="SourceAlpha" type="matrix" values="0 0 0 0 0 0 0 0 0 0 0 0 0 0 0 0 0 0 127 0" result="hardAlpha"/>
<feOffset dx="4" dy="4"/>
<feGaussianBlur stdDeviation="5"/>
<feComposite in2="hardAlpha" operator="arithmetic" k2="-1" k3="1"/>
<feColorMatrix type="matrix" values="0 0 0 0 0 0 0 0 0 0 0 0 0 0 0 0 0 0 0.25 0"/>
<feBlend mode="normal" in2="shape" result="effect2_innerShadow_0_157"/>
<feColorMatrix in="SourceAlpha" type="matrix" values="0 0 0 0 0 0 0 0 0 0 0 0 0 0 0 0 0 0 127 0" result="hardAlpha"/>
<feOffset dx="-4" dy="-4"/>
<feGaussianBlur stdDeviation="5"/>
<feComposite in2="hardAlpha" operator="arithmetic" k2="-1" k3="1"/>
<feColorMatrix type="matrix" values="0 0 0 0 1 0 0 0 0 1 0 0 0 0 1 0 0 0 0.1 0"/>
<feBlend mode="normal" in2="effect2_innerShadow_0_157" result="effect3_innerShadow_0_157"/>
</filter>
</defs>
</svg>
